<svg width="357" height="357" viewBox="0 0 357 357" fill="none" xmlns="http://www.w3.org/2000/svg">
<rect width="357" height="357" rx="40" fill="white"/>
<path d="M226.938 83.5C228.778 83.5002 230.554 84.1768 231.929 85.4023C233.3 86.6244 234.177 88.3077 234.395 90.1338L234.451 91.0439V99.5615H242.963C248.966 99.5613 254.743 101.86 259.111 105.987C263.343 109.987 265.943 115.41 266.421 121.207L266.46 121.769L266.5 123.167V219.52L266.494 220.083C266.355 225.898 264.077 231.465 260.087 235.706C255.972 240.081 250.345 242.715 244.357 243.071L242.949 243.111H146.815L146.252 243.104C140.452 242.966 134.898 240.684 130.667 236.685C126.301 232.559 123.672 226.918 123.317 220.915L123.278 219.505V123.152L123.285 122.589C123.423 116.774 125.7 111.208 129.69 106.967C133.809 102.589 139.441 99.9536 145.434 99.6006L145.433 99.5996L146.815 99.5605V99.5615H155.328V91.0312C155.33 89.1115 156.063 87.2648 157.377 85.8691C158.692 84.4738 160.488 83.634 162.399 83.5215C164.31 83.409 166.192 84.0329 167.661 85.2646C169.125 86.4934 170.067 88.2351 170.296 90.1357L170.352 91.0439V99.5615H219.426V91.0303C219.426 89.0328 220.218 87.1172 221.626 85.7051C222.947 84.3812 224.709 83.6011 226.566 83.5088L226.938 83.5ZM138.302 216.508C138.302 219.426 139.099 222.105 140.427 224.147C141.754 226.188 143.633 227.622 145.797 227.972L145.818 227.975L145.839 227.977L146.777 228.049L146.795 228.05H242.963C245.203 228.05 247.21 226.889 248.7 225.049C250.189 223.21 251.182 220.672 251.417 217.834L251.418 217.824V217.814L251.475 216.53V138.714H138.302V216.508Z" fill="black" stroke="black"/>
<path d="M214.556 174.777C218.176 174.777 221.111 177.712 221.111 181.333C221.111 184.953 218.176 187.888 214.556 187.888H175.222C171.602 187.888 168.667 184.953 168.667 181.333C168.667 177.712 171.602 174.777 175.222 174.777H214.556Z" fill="black" stroke="black" stroke-linecap="round" stroke-linejoin="round"/>
<path d="M188.333 201V161.667C188.333 158.046 191.269 155.111 194.889 155.111C198.51 155.111 201.445 158.046 201.445 161.667V201C201.445 204.621 198.51 207.556 194.889 207.556C191.269 207.556 188.333 204.621 188.333 201Z" fill="black" stroke="black" stroke-linecap="round" stroke-linejoin="round"/>
<path d="M117.493 274.75C102.351 274.75 90 262.495 90 247.471L90 156.54C90 151.427 91.3725 146.876 94.2152 142.989C96.2398 140.222 98.7636 138.127 101.321 136.471L103.872 134.953L104.713 134.544C108.98 132.721 114.031 134.364 116.338 138.478C118.644 142.591 117.389 147.714 113.582 150.351L112.785 150.848L111.309 151.727C110.053 152.544 109.409 153.187 109.053 153.672C108.724 154.122 108.329 154.834 108.329 156.54V247.471C108.329 252.451 112.473 256.564 117.493 256.564H209.118L210.326 256.484C211.522 256.323 212.677 255.927 213.727 255.321C214.779 254.712 215.698 253.906 216.43 252.95L217.092 251.955L217.602 251.165C220.299 247.415 225.473 246.223 229.594 248.554C233.715 250.885 235.321 255.912 233.443 260.125L233.013 260.959L232.064 262.496C229.735 265.992 226.618 268.92 222.954 271.038C219.289 273.157 215.186 274.402 210.97 274.688L209.154 274.75H117.493Z" fill="black" stroke="black" stroke-linecap="round" stroke-linejoin="round"/>
</svg>
